<?xml version="1.0" encoding="UTF-8" standalone="no"?>
<!-- Created with Inkscape (http://www.inkscape.org/) -->

<svg
   xmlns:dc="http://purl.org/dc/elements/1.1/"
   xmlns:cc="http://creativecommons.org/ns#"
   xmlns:rdf="http://www.w3.org/1999/02/22-rdf-syntax-ns#"
   xmlns:svg="http://www.w3.org/2000/svg"
   xmlns="http://www.w3.org/2000/svg"
   xmlns:xlink="http://www.w3.org/1999/xlink"
   xmlns:sodipodi="http://sodipodi.sourceforge.net/DTD/sodipodi-0.dtd"
   xmlns:inkscape="http://www.inkscape.org/namespaces/inkscape"
   sodipodi:docname="Wegzeichen_Dresdner_Heide_Traubelweg.svg"
   height="772"
   width="997"
   inkscape:version="0.47pre4 r22446"
   version="1.1"
   id="svg2876">
  <defs
     id="defs8">
    <inkscape:perspective
       sodipodi:type="inkscape:persp3d"
       inkscape:vp_x="0 : 386 : 1"
       inkscape:vp_y="0 : 1000 : 0"
       inkscape:vp_z="997 : 386 : 1"
       inkscape:persp3d-origin="498.5 : 257.33333 : 1"
       id="perspective10" />
  </defs>
  <metadata
     id="metadata2882">
    <rdf:RDF>
      <cc:Work
         rdf:about="">
        <dc:format>image/svg+xml</dc:format>
        <dc:type
           rdf:resource="http://purl.org/dc/dcmitype/StillImage" />
        <dc:title />
        <dc:creator>
          <cc:Agent>
            <dc:title>Manfred Ruttkowski, Dresden</dc:title>
          </cc:Agent>
        </dc:creator>
        <dc:source>Author (Manfred Ruttkowski)</dc:source>
        <dc:subject>
          <rdf:Bag>
            <rdf:li>Wegzeichen</rdf:li>
            <rdf:li>Symbol</rdf:li>
            <rdf:li>Dresdner Heide</rdf:li>
          </rdf:Bag>
        </dc:subject>
        <dc:description>Wegzeichen der Dresdner Heide, Sachsen, Deutschland. Vektorisiert von der gescannten Original-Schablone.</dc:description>
        <dc:contributor>
          <cc:Agent>
            <dc:title>Colin Marquardt</dc:title>
          </cc:Agent>
        </dc:contributor>
        <dc:publisher>
          <cc:Agent>
            <dc:title>Colin Marquardt</dc:title>
          </cc:Agent>
        </dc:publisher>
        <cc:license
           rdf:resource="http://creativecommons.org/licenses/publicdomain/" />
      </cc:Work>
      <cc:License
         rdf:about="http://creativecommons.org/licenses/publicdomain/">
        <cc:permits
           rdf:resource="http://creativecommons.org/ns#Reproduction" />
        <cc:permits
           rdf:resource="http://creativecommons.org/ns#Distribution" />
        <cc:permits
           rdf:resource="http://creativecommons.org/ns#DerivativeWorks" />
      </cc:License>
    </rdf:RDF>
  </metadata>
  <sodipodi:namedview
     pagecolor="#ffffff"
     bordercolor="#666666"
     borderopacity="1"
     objecttolerance="10"
     gridtolerance="10"
     guidetolerance="10"
     inkscape:pageopacity="0"
     inkscape:pageshadow="2"
     inkscape:window-width="1294"
     inkscape:window-height="881"
     id="namedview2878"
     showgrid="false"
     inkscape:zoom="3.6784207"
     inkscape:cx="308.84814"
     inkscape:cy="192.64093"
     inkscape:window-x="109"
     inkscape:window-y="61"
     inkscape:window-maximized="0"
     inkscape:current-layer="layer1"
     inkscape:snap-global="false" />
  <g
     inkscape:groupmode="layer"
     id="layer2"
     inkscape:label="Bitmap"
     sodipodi:insensitive="true"
     style="opacity:0.6;display:inline">
    <image
       xlink:href="file:///home/colin/gpx/Wegezeichenschablonen_zur_Dresdner_Heide/Wegzeichen_Dresdner_Heide/Wegzeichen_Dresdner_Heide_Traubelweg.jpg"
       id="image"
       x="0"
       y="0" />
  </g>
  <g
     inkscape:groupmode="layer"
     id="layer1"
     inkscape:label="Symbol">
    <path
       style="fill:#ff0000;fill-opacity:1;stroke:#000000;stroke-width:2;stroke-miterlimit:4;stroke-opacity:1;stroke-dasharray:none;stroke-dashoffset:2.70000002"
       d="m 306.38149,652.92716 -103.57706,1.63113 11.14609,-11.6898 4.34969,-6.52453 2.4467,-9.2431 -0.27186,-184.04638 -69.59508,-0.54371 -13.59279,7.06825 -8.15567,10.33052 -0.54372,-92.70283 10.60238,11.14609 9.78681,4.8934 71.49807,0.27186 -1.63113,-235.69898 150.60811,-0.27186 -0.81556,-70.954359 -5.43712,-8.971242 -12.77722,-11.146088 93.51839,0.271856 -10.05866,10.330521 -5.98083,12.233511 0.81557,68.235801 147.07399,-1.35927 0.81556,236.24269 70.95437,0 7.34011,-5.16526 9.51495,-13.04908 -0.54371,94.06211 -9.2431,-9.78681 -9.51495,-5.98083 -68.77952,-0.27186 0,181.87153 10.05866,14.68022 7.34011,6.52454 6.52454,4.62155 -103.30521,1.08742 11.41795,-8.42753 7.88382,-10.05867 1.63113,-5.16526 0.27186,-185.1338 -69.32323,0 -10.60238,4.3497 -11.96165,13.59279 0.27185,-94.60582 11.14609,11.41794 14.68021,5.70897 65.51725,0 0.54371,-175.07513 -89.98427,0.54371 -0.54371,73.12921 7.34011,9.78681 8.69938,7.61196 -90.79983,0.54371 9.24309,-8.97124 6.25269,-13.59279 0.27185,-67.96395 -88.89684,0.27186 0.54371,174.25956 61.71126,-0.27185 11.14609,-4.07784 12.23351,-14.68021 0,95.69324 -12.50536,-13.86465 -9.51496,-3.80598 -63.88611,1.35928 -0.27186,170.9973 8.69939,19.02991 18.21434,19.30176 z"
       id="path2816" />
  </g>
</svg>
