<?xml version="1.0" encoding="UTF-8" standalone="no"?>
<!-- Created with Inkscape (http://www.inkscape.org/) -->

<svg
   xmlns:dc="http://purl.org/dc/elements/1.1/"
   xmlns:cc="http://creativecommons.org/ns#"
   xmlns:rdf="http://www.w3.org/1999/02/22-rdf-syntax-ns#"
   xmlns:svg="http://www.w3.org/2000/svg"
   xmlns="http://www.w3.org/2000/svg"
   xmlns:xlink="http://www.w3.org/1999/xlink"
   xmlns:sodipodi="http://sodipodi.sourceforge.net/DTD/sodipodi-0.dtd"
   xmlns:inkscape="http://www.inkscape.org/namespaces/inkscape"
   sodipodi:docname="Wegzeichen_Dresdner_Heide_Reichsapfel.svg"
   height="772"
   width="997"
   inkscape:version="0.47 r22583"
   version="1.1"
   id="svg2876">
  <defs
     id="defs8">
    <inkscape:perspective
       sodipodi:type="inkscape:persp3d"
       inkscape:vp_x="0 : 386 : 1"
       inkscape:vp_y="0 : 1000 : 0"
       inkscape:vp_z="997 : 386 : 1"
       inkscape:persp3d-origin="498.5 : 257.33333 : 1"
       id="perspective10" />
  </defs>
  <metadata
     id="metadata2882">
    <rdf:RDF>
      <cc:Work
         rdf:about="">
        <dc:format>image/svg+xml</dc:format>
        <dc:type
           rdf:resource="http://purl.org/dc/dcmitype/StillImage" />
        <dc:title />
        <dc:creator>
          <cc:Agent>
            <dc:title>Manfred Ruttkowski, Dresden</dc:title>
          </cc:Agent>
        </dc:creator>
        <dc:source>Author (Manfred Ruttkowski)</dc:source>
        <dc:subject>
          <rdf:Bag>
            <rdf:li>Wegzeichen</rdf:li>
            <rdf:li>Symbol</rdf:li>
            <rdf:li>Dresdner Heide</rdf:li>
          </rdf:Bag>
        </dc:subject>
        <dc:description>Wegzeichen der Dresdner Heide, Sachsen, Deutschland. Vektorisiert von der gescannten Original-Schablone.</dc:description>
        <dc:contributor>
          <cc:Agent>
            <dc:title>Colin Marquardt</dc:title>
          </cc:Agent>
        </dc:contributor>
        <dc:publisher>
          <cc:Agent>
            <dc:title>Colin Marquardt</dc:title>
          </cc:Agent>
        </dc:publisher>
        <cc:license
           rdf:resource="http://creativecommons.org/licenses/publicdomain/" />
      </cc:Work>
      <cc:License
         rdf:about="http://creativecommons.org/licenses/publicdomain/">
        <cc:permits
           rdf:resource="http://creativecommons.org/ns#Reproduction" />
        <cc:permits
           rdf:resource="http://creativecommons.org/ns#Distribution" />
        <cc:permits
           rdf:resource="http://creativecommons.org/ns#DerivativeWorks" />
      </cc:License>
    </rdf:RDF>
  </metadata>
  <sodipodi:namedview
     pagecolor="#ffffff"
     bordercolor="#666666"
     borderopacity="1"
     objecttolerance="10"
     gridtolerance="10"
     guidetolerance="10"
     inkscape:pageopacity="0"
     inkscape:pageshadow="2"
     inkscape:window-width="1680"
     inkscape:window-height="977"
     id="namedview2878"
     showgrid="false"
     inkscape:zoom="0.91960517"
     inkscape:cx="511.88379"
     inkscape:cy="300.67516"
     inkscape:window-x="0"
     inkscape:window-y="25"
     inkscape:window-maximized="1"
     inkscape:current-layer="layer1"
     inkscape:snap-global="false" />
  <g
     inkscape:groupmode="layer"
     id="layer2"
     inkscape:label="Bitmap"
     sodipodi:insensitive="true"
     style="opacity:0.6;display:inline">
    <image
       sodipodi:absref="/home/colin/gpx/Wegezeichenschablonen_zur_Dresdner_Heide/Wegzeichen_Dresdner_Heide/Wegzeichen_Dresdner_Heide_Reichsapfel.jpg"
       xlink:href="Wegzeichen_Dresdner_Heide_Reichsapfel.jpg"
       y="0"
       x="0"
       id="image" />
  </g>
  <g
     inkscape:groupmode="layer"
     id="layer1"
     inkscape:label="Symbol">
    <path
       style="fill:#ff0000;fill-opacity:1;stroke:#000000;stroke-width:2;stroke-miterlimit:4;stroke-opacity:1;stroke-dasharray:none;stroke-dashoffset:2.70000002"
       d="M 306.40625 50.9375 L 323.125 72.84375 L 326.40625 84.375 L 327.1875 177.625 L 228.5625 177.8125 L 219.90625 174.75 L 203.1875 160.125 L 204.34375 247.21875 L 224.71875 230.875 L 235.28125 226.25 L 327.375 226.84375 L 327.03125 353.875 L 314.8125 356.34375 L 303.65625 359.0625 L 289.25 362.84375 L 275.65625 368.03125 L 259.34375 374.8125 L 239.5 385.40625 L 222.90625 397.375 L 207.4375 409.34375 L 193.84375 422.125 L 181.875 436 L 166.90625 456.65625 L 157.125 474.3125 L 148.71875 492 L 141.625 511.28125 L 136.46875 530.3125 L 132.65625 548.25 L 131.3125 567.03125 L 131.6875 589.5625 L 133.40625 609.9375 L 137.25 630.53125 L 144.9375 654.15625 L 152.25 671.84375 L 157.25 680.875 L 167.25 699.15625 L 177.03125 713.375 L 187.4375 725.875 L 202.625 741.0625 L 217.8125 753.75 L 233.5625 765.09375 L 246.8125 773.9375 L 266.25 782.96875 L 283.53125 789.3125 L 307 796.03125 L 324.875 799.09375 L 343.125 801.21875 L 361.96875 801.03125 L 376.59375 800.65625 L 391.5625 798.71875 L 409.65625 794.09375 L 426.5625 788.90625 L 448.09375 779.5 L 469.8125 767.59375 L 488.46875 754.3125 L 503.46875 741.4375 L 515.9375 728.15625 L 527.46875 714.34375 L 536.90625 700.3125 L 546.71875 683.78125 L 553.625 668.96875 L 559.78125 653.40625 L 565.15625 638.96875 L 568.25 626.28125 L 571.5 613.21875 L 573.625 597.0625 L 574.375 577.28125 L 574.1875 562.65625 L 572.28125 546.90625 L 569.78125 530.1875 L 565.53125 511.34375 L 559.78125 495.375 L 548.625 470.59375 L 536.3125 452.3125 L 522.6875 434.25 L 507.3125 416.75 L 492.5 402.34375 L 474.21875 389.65625 L 456.75 378.6875 L 441.5625 371.1875 L 424.25 364.84375 L 405.03125 358.90625 L 393.3125 356.21875 L 382.15625 354.65625 L 376.375 353.5 L 376 227.21875 L 472.3125 227.21875 L 484.625 231.84375 L 499.8125 245.09375 L 499.40625 158.59375 L 482.6875 174.15625 L 474.4375 178.1875 L 375.8125 177.8125 L 376 77.84375 L 378.6875 69.40625 L 392.53125 51.53125 L 306.40625 50.9375 z M 376.53125 404.1875 L 381.15625 404.71875 L 392.5625 407.15625 L 406.6875 411.25 L 421.09375 417.21875 L 435.78125 424.03125 L 450.1875 432.71875 L 461.34375 441.96875 L 471.40625 450.40625 L 481.1875 460.71875 L 488.78125 470.5 L 495.59375 479.75 L 501.3125 489.53125 L 508.09375 501.5 L 514.34375 515.09375 L 518.4375 528.15625 L 521.6875 540.09375 L 523.0625 551.53125 L 377.0625 553.4375 L 376.53125 404.1875 z M 327.59375 404.4375 L 327.59375 553.96875 L 179.6875 555.59375 L 180.78125 547.1875 L 182.15625 536.84375 L 184.3125 527.0625 L 188.9375 515.09375 L 194.90625 501.21875 L 201.4375 488.71875 L 207.96875 478.65625 L 216.125 467.53125 L 225.625 456.65625 L 234.875 447.6875 L 246.5625 438.4375 L 256.90625 430.8125 L 269.125 423.75 L 281.90625 417.21875 L 293.34375 412.34375 L 306.375 408.25 L 316.71875 405.8125 L 327.59375 404.4375 z M 524.6875 600.1875 L 523.59375 611.34375 L 521.6875 621.9375 L 518.96875 631.71875 L 513.25 646.9375 L 506.46875 660.8125 L 499.125 673.3125 L 490.96875 685.28125 L 480.90625 696.6875 L 471.125 705.65625 L 461.0625 714.625 L 448.5625 723.625 L 434.6875 731.5 L 421.09375 738.28125 L 406.15625 744 L 389.5625 748.625 L 372.15625 751.875 L 359.125 752.6875 L 347.15625 752.96875 L 335.1875 752.15625 L 324.3125 750.53125 L 313.71875 748.0625 L 301.75 744.53125 L 288.4375 739.65625 L 273.75 732.59375 L 259.90625 724.6875 L 247.9375 716.53125 L 237.875 707.5625 L 226.46875 696.6875 L 215.84375 684.1875 L 206.34375 671.40625 L 198.1875 656.1875 L 191.9375 642.875 L 187.3125 628.71875 L 184.03125 619.5 L 180.5 604.53125 L 524.6875 600.1875 z "
       id="path2816" />
  </g>
</svg>
