<?xml version="1.0" encoding="UTF-8" standalone="no"?>
<!-- Created with Inkscape (http://www.inkscape.org/) -->

<svg
   xmlns:dc="http://purl.org/dc/elements/1.1/"
   xmlns:cc="http://creativecommons.org/ns#"
   xmlns:rdf="http://www.w3.org/1999/02/22-rdf-syntax-ns#"
   xmlns:svg="http://www.w3.org/2000/svg"
   xmlns="http://www.w3.org/2000/svg"
   xmlns:xlink="http://www.w3.org/1999/xlink"
   xmlns:sodipodi="http://sodipodi.sourceforge.net/DTD/sodipodi-0.dtd"
   xmlns:inkscape="http://www.inkscape.org/namespaces/inkscape"
   sodipodi:docname="Wegzeichen_Dresdner_Heide_Oberringel.svg"
   height="772"
   width="997"
   inkscape:version="0.47 r22583"
   version="1.1"
   id="svg2876">
  <defs
     id="defs8">
    <inkscape:perspective
       sodipodi:type="inkscape:persp3d"
       inkscape:vp_x="0 : 386 : 1"
       inkscape:vp_y="0 : 1000 : 0"
       inkscape:vp_z="997 : 386 : 1"
       inkscape:persp3d-origin="498.5 : 257.33333 : 1"
       id="perspective10" />
  </defs>
  <metadata
     id="metadata2882">
    <rdf:RDF>
      <cc:Work
         rdf:about="">
        <dc:format>image/svg+xml</dc:format>
        <dc:type
           rdf:resource="http://purl.org/dc/dcmitype/StillImage" />
        <dc:title />
        <dc:creator>
          <cc:Agent>
            <dc:title>Manfred Ruttkowski, Dresden</dc:title>
          </cc:Agent>
        </dc:creator>
        <dc:source>Author (Manfred Ruttkowski)</dc:source>
        <dc:subject>
          <rdf:Bag>
            <rdf:li>Wegzeichen</rdf:li>
            <rdf:li>Symbol</rdf:li>
            <rdf:li>Dresdner Heide</rdf:li>
          </rdf:Bag>
        </dc:subject>
        <dc:description>Wegzeichen der Dresdner Heide, Sachsen, Deutschland. Vektorisiert von der gescannten Original-Schablone.</dc:description>
        <dc:contributor>
          <cc:Agent>
            <dc:title>Colin Marquardt</dc:title>
          </cc:Agent>
        </dc:contributor>
        <dc:publisher>
          <cc:Agent>
            <dc:title>Colin Marquardt</dc:title>
          </cc:Agent>
        </dc:publisher>
        <cc:license
           rdf:resource="http://creativecommons.org/licenses/publicdomain/" />
      </cc:Work>
      <cc:License
         rdf:about="http://creativecommons.org/licenses/publicdomain/">
        <cc:permits
           rdf:resource="http://creativecommons.org/ns#Reproduction" />
        <cc:permits
           rdf:resource="http://creativecommons.org/ns#Distribution" />
        <cc:permits
           rdf:resource="http://creativecommons.org/ns#DerivativeWorks" />
      </cc:License>
    </rdf:RDF>
  </metadata>
  <sodipodi:namedview
     pagecolor="#ffffff"
     bordercolor="#666666"
     borderopacity="1"
     objecttolerance="10"
     gridtolerance="10"
     guidetolerance="10"
     inkscape:pageopacity="0"
     inkscape:pageshadow="2"
     inkscape:window-width="1680"
     inkscape:window-height="977"
     id="namedview2878"
     showgrid="false"
     inkscape:zoom="0.91960517"
     inkscape:cx="615.85792"
     inkscape:cy="509.09823"
     inkscape:window-x="0"
     inkscape:window-y="25"
     inkscape:window-maximized="1"
     inkscape:current-layer="layer1"
     inkscape:snap-global="false" />
  <g
     inkscape:groupmode="layer"
     id="layer2"
     inkscape:label="Bitmap"
     sodipodi:insensitive="true"
     style="opacity:0.6;display:inline">
    <image
       sodipodi:absref="/home/colin/gpx/Wegezeichenschablonen_zur_Dresdner_Heide/Wegzeichen_Dresdner_Heide/Wegzeichen_Dresdner_Heide_Oberringel.jpg"
       xlink:href="Wegzeichen_Dresdner_Heide_Oberringel.jpg"
       y="0"
       x="0"
       id="image" />
  </g>
  <g
     inkscape:groupmode="layer"
     id="layer1"
     inkscape:label="Symbol">
    <path
       style="fill:#ff0000;fill-opacity:1;stroke:#000000;stroke-width:2;stroke-miterlimit:4;stroke-opacity:1;stroke-dasharray:none;stroke-dashoffset:2.70000002"
       d="m 361,50.5625 -14.59375,0.96875 -20.1875,2.09375 -21.34375,5.1875 -16.34375,6.15625 -14.59375,6.9375 -15.96875,9.21875 -16.34375,11.90625 -10.75,10.1875 -10.96875,11.34375 -8.84375,11.34375 -10.375,15 -7.875,13.84375 -6.71875,15.5625 -3.84375,13.0625 -3.875,18.46875 -2.875,15.5625 -2.5,15 0,18.0625 0.96875,13.28125 3.65625,20.75 5,18.65625 5.375,14.78125 6.9375,14.4375 8.4375,14.03125 9.21875,13.0625 9.8125,11.90625 8.84375,9.4375 14.625,13.25 -65.9375,184.75 -3.09375,5.1875 -4.8125,4.03125 -4.40625,2.5 -40.5625,-0.5625 0,59.59375 71.5,-0.78125 5.40625,-1.15625 6.71875,-4.21875 5.1875,-4.4375 4.625,-5.75 2.6875,-5 75.34375,-205.875 16.15625,5 15.9375,4.03125 16.53125,2.09375 16.53125,0.96875 20.1875,-1.15625 17.125,-3.65625 27.28125,-8.0625 74.40625,204.53125 3.25,6.9375 5,5.1875 7.3125,5.1875 9.21875,4.21875 73.0625,-0.375 -0.375,-58.4375 -29.21875,0.5625 -13.65625,0 -4.8125,-3.25 -4.625,-5 -4.21875,-7.3125 -5.5625,-15.96875 -58.625,-164.71875 19.83118,-18.2124 10.13757,-11.00635 10.96875,-14.625 9.03125,-15 7.875,-15.9375 6.9375,-16.34375 5.5625,-18.65625 3.65625,-26.90625 0.5625,-16.71875 -1.15625,-16.9375 -3.625,-19.59375 -4.25,-15.5625 -5.9375,-17.3125 -7.5,-15.75 -7.6875,-14.4375 -15.1875,-20.5625 -15,-15.75 L 478.46875,90.34375 460.40625,78.25 445.78125,70.34375 429.0625,63.625 410.59375,58.0625 396.5625,54.40625 376.78125,51.53125 361,50.5625 z m -0.5625,61.6875 17.28125,0.96875 13.46875,1.9375 12.875,3.84375 15,5.75 14.40625,8.46875 13.09375,9.40625 12.28125,11.75 10,11.90625 7.5,13.46875 6.53125,13.4375 4.625,13.0625 3.84375,16.34375 1.34375,15.375 -0.375,11.5625 -0.96875,9.21875 -2.3125,15.9375 -5,16.34375 -8.4375,17.5 L 467.5,320.25 l -9.21875,11.9375 -9.625,9.78125 -13.0625,9.625 -12.3125,7.875 -11.71875,5.5625 -10.75,4.4375 -14.4375,3.46875 -15,0.9375 -13.4375,0.21875 -12.875,-1.34375 -16.15625,-4.4375 -15.5625,-5.75 -13.46875,-6.15625 -11.34375,-7.3125 -12.875,-10.96875 -8.84375,-8.25 -10,-12.3125 -5.5625,-10 -6.15625,-12.5 L 240.6875,283.15625 237.03125,269.6875 235.875,257 l -0.1875,-14.96875 0.9375,-17.5 1.9375,-13.28125 5.375,-17.46875 7.5,-15.78125 7.5,-12.875 8.0625,-10.375 10.1875,-9.625 9.625,-8.0625 12.875,-8.65625 17.09375,-8.46875 16.15625,-4.59375 14.625,-2.6875 12.875,-0.40625 z"
       id="path2816"
       sodipodi:nodetypes="cccccccccccccccccccccccccccccccccccccccccccccccccccccccccccccccccccccccccccccccccccccccccccccccccccccccccccccccccccccccccccccccccccccccccccccccc" />
  </g>
</svg>
