<?xml version="1.0" encoding="UTF-8" standalone="no"?>
<!-- Created with Inkscape (http://www.inkscape.org/) -->

<svg
   xmlns:dc="http://purl.org/dc/elements/1.1/"
   xmlns:cc="http://creativecommons.org/ns#"
   xmlns:rdf="http://www.w3.org/1999/02/22-rdf-syntax-ns#"
   xmlns:svg="http://www.w3.org/2000/svg"
   xmlns="http://www.w3.org/2000/svg"
   xmlns:xlink="http://www.w3.org/1999/xlink"
   xmlns:sodipodi="http://sodipodi.sourceforge.net/DTD/sodipodi-0.dtd"
   xmlns:inkscape="http://www.inkscape.org/namespaces/inkscape"
   sodipodi:docname="Wegzeichen_Dresdner_Heide_Weißiger_Gänsefuß.svg"
   height="772"
   width="997"
   inkscape:version="0.47pre4 r22446"
   version="1.1"
   id="svg2876">
  <defs
     id="defs8">
    <inkscape:perspective
       sodipodi:type="inkscape:persp3d"
       inkscape:vp_x="0 : 386 : 1"
       inkscape:vp_y="0 : 1000 : 0"
       inkscape:vp_z="997 : 386 : 1"
       inkscape:persp3d-origin="498.5 : 257.33333 : 1"
       id="perspective10" />
  </defs>
  <metadata
     id="metadata2882">
    <rdf:RDF>
      <cc:Work
         rdf:about="">
        <dc:format>image/svg+xml</dc:format>
        <dc:type
           rdf:resource="http://purl.org/dc/dcmitype/StillImage" />
        <dc:title />
        <dc:creator>
          <cc:Agent>
            <dc:title>Manfred Ruttkowski, Dresden</dc:title>
          </cc:Agent>
        </dc:creator>
        <dc:source>Author (Manfred Ruttkowski)</dc:source>
        <dc:subject>
          <rdf:Bag>
            <rdf:li>Wegzeichen</rdf:li>
            <rdf:li>Symbol</rdf:li>
            <rdf:li>Dresdner Heide</rdf:li>
          </rdf:Bag>
        </dc:subject>
        <dc:description>Wegzeichen der Dresdner Heide, Sachsen, Deutschland. Vektorisiert von der gescannten Original-Schablone.</dc:description>
        <dc:contributor>
          <cc:Agent>
            <dc:title>Colin Marquardt</dc:title>
          </cc:Agent>
        </dc:contributor>
        <dc:publisher>
          <cc:Agent>
            <dc:title>Colin Marquardt</dc:title>
          </cc:Agent>
        </dc:publisher>
        <cc:license
           rdf:resource="http://creativecommons.org/licenses/publicdomain/" />
      </cc:Work>
      <cc:License
         rdf:about="http://creativecommons.org/licenses/publicdomain/">
        <cc:permits
           rdf:resource="http://creativecommons.org/ns#Reproduction" />
        <cc:permits
           rdf:resource="http://creativecommons.org/ns#Distribution" />
        <cc:permits
           rdf:resource="http://creativecommons.org/ns#DerivativeWorks" />
      </cc:License>
    </rdf:RDF>
  </metadata>
  <sodipodi:namedview
     pagecolor="#ffffff"
     bordercolor="#666666"
     borderopacity="1"
     objecttolerance="10"
     gridtolerance="10"
     guidetolerance="10"
     inkscape:pageopacity="0"
     inkscape:pageshadow="2"
     inkscape:window-width="1294"
     inkscape:window-height="881"
     id="namedview2878"
     showgrid="false"
     inkscape:zoom="0.91960517"
     inkscape:cx="468.57853"
     inkscape:cy="259.55305"
     inkscape:window-x="109"
     inkscape:window-y="61"
     inkscape:window-maximized="0"
     inkscape:current-layer="layer1"
     inkscape:snap-global="false" />
  <g
     inkscape:groupmode="layer"
     id="layer2"
     inkscape:label="Bitmap"
     sodipodi:insensitive="true"
     style="opacity:0.6;display:inline">
    <image
       xlink:href="file:///home/colin/gpx/Wegezeichenschablonen_zur_Dresdner_Heide/Wegzeichen_Dresdner_Heide/Wegzeichen_Dresdner_Heide_Weißiger_Gänsefuß.jpg"
       id="image"
       x="0"
       y="0" />
  </g>
  <g
     inkscape:groupmode="layer"
     id="layer1"
     inkscape:label="Symbol">
    <path
       style="fill:#ff0000;fill-opacity:1;stroke:#000000;stroke-width:2;stroke-miterlimit:4;stroke-opacity:1;stroke-dasharray:none;stroke-dashoffset:2.70000002"
       d="m 149.55578,646.08864 -19.22311,0.96116 -12.49502,0.76892 -11.91832,1.53785 -3.26793,0 -2.49901,-1.73008 0.19223,-3.0757 4.22909,-3.65239 25.3745,-22.2988 12.49502,-14.2251 10.18825,-14.41733 L 455.63032,51.582127 574.15945,253.84284 693.23229,46.145011 986.29285,559.95248 l 8.2916,14.95206 19.57365,26.50594 13.1248,13.72896 12.3028,11.1494 10.5727,7.88148 6.4092,4.34848 0.4078,2.71856 -0.6797,2.03892 -1.903,1.08742 -38.0598,-2.85448 -27.86521,-1.35928 -34.93347,0.81556 -24.19516,1.63114 -16.44728,2.17484 -11.41794,2.31078 -5.02934,1.49521 -2.17484,-0.40779 -2.17485,-2.17484 0.81557,-3.53413 3.67005,-6.93232 2.4467,-9.2431 0.54372,-10.33052 -3.26227,-11.96166 -5.57305,-10.33052 -229.03851,-406.69627 -62.52683,112.00459 168.00688,290.34199 14.95207,17.39877 23.92331,24.46702 12.23351,9.2431 3.80598,2.17485 0.27186,2.71856 -1.35928,2.4467 -2.99041,1.35928 -16.85506,-2.4467 -27.45744,-2.17485 -49.47776,0.27186 -28.54485,1.35927 -19.30177,1.90299 -13.04908,2.44671 -5.43711,1.63113 c 0,0 -5.23323,0.27186 -5.23323,0.27186 0.0142,-0.0222 -1.56317,-5.98083 -1.56317,-5.98083 l 5.98083,-9.51495 3.26227,-8.15568 0,-9.78681 -1.63113,-5.98082 -117.16985,-210.68825 -107.11119,191.11463 -6.25268,11.14609 -2.44671,5.43711 -0.81556,9.2431 0.81556,10.05866 4.62155,8.69939 4.3497,5.16526 0.27185,3.26227 -1.63113,3.26227 -2.71856,1.63113 -15.49578,-1.35927 -25.8263,-0.54372 -35.34126,0.54372 -17.12691,1.08742 -4.3497,-0.81557 -0.15292,-2.53165 2.59963,-2.36175 22.56403,-17.39877 22.29217,-26.91373 15.49578,-24.73888 120.97584,-217.75649 -93.24654,-164.20091 -232.43671,413.76453 -1.08743,5.43712 -0.27185,11.96165 1.63113,6.25269 5.70897,8.42753 2.44671,4.34969 0,3.80598 -2.71856,1.63114 -21.47661,-3.26227 -15.49578,-0.27186 -9.75172,-0.31398 z"
       id="path2871"
       sodipodi:nodetypes="ccccccccccccccccccccccccccccccccccccccccccccccccccccccccsccccccccccccccccccccccccccccccccccccccc" />
  </g>
</svg>
