<?xml version="1.0" encoding="UTF-8" standalone="no"?>
<!-- Created with Inkscape (http://www.inkscape.org/) -->

<svg
   xmlns:dc="http://purl.org/dc/elements/1.1/"
   xmlns:cc="http://creativecommons.org/ns#"
   xmlns:rdf="http://www.w3.org/1999/02/22-rdf-syntax-ns#"
   xmlns:svg="http://www.w3.org/2000/svg"
   xmlns="http://www.w3.org/2000/svg"
   xmlns:xlink="http://www.w3.org/1999/xlink"
   xmlns:sodipodi="http://sodipodi.sourceforge.net/DTD/sodipodi-0.dtd"
   xmlns:inkscape="http://www.inkscape.org/namespaces/inkscape"
   sodipodi:docname="Wegzeichen_Dresdner_Heide_Ochsenkopf.svg"
   height="772"
   width="997"
   inkscape:version="0.47 r22583"
   version="1.1"
   id="svg2876">
  <defs
     id="defs8">
    <inkscape:perspective
       sodipodi:type="inkscape:persp3d"
       inkscape:vp_x="0 : 386 : 1"
       inkscape:vp_y="0 : 1000 : 0"
       inkscape:vp_z="997 : 386 : 1"
       inkscape:persp3d-origin="498.5 : 257.33333 : 1"
       id="perspective10" />
  </defs>
  <metadata
     id="metadata2882">
    <rdf:RDF>
      <cc:Work
         rdf:about="">
        <dc:format>image/svg+xml</dc:format>
        <dc:type
           rdf:resource="http://purl.org/dc/dcmitype/StillImage" />
        <dc:title />
        <dc:creator>
          <cc:Agent>
            <dc:title>Manfred Ruttkowski, Dresden</dc:title>
          </cc:Agent>
        </dc:creator>
        <dc:source>Author (Manfred Ruttkowski)</dc:source>
        <dc:subject>
          <rdf:Bag>
            <rdf:li>Wegzeichen</rdf:li>
            <rdf:li>Symbol</rdf:li>
            <rdf:li>Dresdner Heide</rdf:li>
          </rdf:Bag>
        </dc:subject>
        <dc:description>Wegzeichen der Dresdner Heide, Sachsen, Deutschland. Vektorisiert von der gescannten Original-Schablone.</dc:description>
        <dc:contributor>
          <cc:Agent>
            <dc:title>Colin Marquardt</dc:title>
          </cc:Agent>
        </dc:contributor>
        <dc:publisher>
          <cc:Agent>
            <dc:title>Colin Marquardt</dc:title>
          </cc:Agent>
        </dc:publisher>
        <cc:license
           rdf:resource="http://creativecommons.org/licenses/publicdomain/" />
      </cc:Work>
      <cc:License
         rdf:about="http://creativecommons.org/licenses/publicdomain/">
        <cc:permits
           rdf:resource="http://creativecommons.org/ns#Reproduction" />
        <cc:permits
           rdf:resource="http://creativecommons.org/ns#Distribution" />
        <cc:permits
           rdf:resource="http://creativecommons.org/ns#DerivativeWorks" />
      </cc:License>
    </rdf:RDF>
  </metadata>
  <sodipodi:namedview
     pagecolor="#ffffff"
     bordercolor="#666666"
     borderopacity="1"
     objecttolerance="10"
     gridtolerance="10"
     guidetolerance="10"
     inkscape:pageopacity="0"
     inkscape:pageshadow="2"
     inkscape:window-width="1680"
     inkscape:window-height="977"
     id="namedview2878"
     showgrid="false"
     inkscape:zoom="0.45980259"
     inkscape:cx="1022.4504"
     inkscape:cy="206.88282"
     inkscape:window-x="0"
     inkscape:window-y="25"
     inkscape:window-maximized="1"
     inkscape:current-layer="layer1"
     inkscape:snap-global="false" />
  <g
     inkscape:groupmode="layer"
     id="layer2"
     inkscape:label="Bitmap"
     sodipodi:insensitive="true"
     style="opacity:0.6;display:inline">
    <image
       sodipodi:absref="/home/colin/gpx/Wegezeichenschablonen_zur_Dresdner_Heide/Wegzeichen_Dresdner_Heide/Wegzeichen_Dresdner_Heide_Ochsenkopf.jpg"
       xlink:href="Wegzeichen_Dresdner_Heide_Ochsenkopf.jpg"
       y="0"
       x="0"
       id="image" />
  </g>
  <g
     inkscape:groupmode="layer"
     id="layer1"
     inkscape:label="Symbol">
    <path
       style="fill:#ff0000;fill-opacity:1;stroke:#000000;stroke-width:2;stroke-miterlimit:4;stroke-opacity:1;stroke-dasharray:none;stroke-dashoffset:2.70000002"
       d="M 209.71875 47.875 L 95.15625 48.4375 L 114.375 67.65625 L 118.03125 74.59375 L 120.90625 79.40625 L 121.6875 85.75 L 122.25 192.8125 L 123.21875 204.15625 L 125.53125 214.71875 L 129.75 229.71875 L 134.375 242.21875 L 139.5625 252.40625 L 146.09375 262 L 152.25 269.6875 L 162.25 280.28125 L 171.46875 288.34375 L 181.46875 295.84375 L 191.28125 301.40625 L 202.21875 306.8125 L 217.21875 311.8125 L 229.90625 314.875 L 247.21875 316.59375 L 257.40625 316.40625 L 268.34375 315.84375 L 279.3125 313.71875 L 287 311.40625 L 298.34375 306.21875 L 298.71875 407.15625 L 216.4375 407.53125 L 208.5625 405.8125 L 202.03125 402.53125 L 197.21875 399.46875 L 181.84375 382.71875 L 181.84375 515.9375 L 189.53125 507.09375 L 197.21875 500 L 203.75 495.96875 L 211.46875 493.0625 L 217.8125 492.3125 L 299.5 493.25 L 300.0625 562.65625 L 302.1875 574.1875 L 307 588.03125 L 312.5625 601.3125 L 318.71875 609.5625 L 326.03125 618.03125 L 333.125 624.9375 L 340.0625 630.3125 L 349.46875 635.90625 L 359.09375 640.90625 L 367.53125 643.59375 L 377.34375 645.90625 L 384.84375 647.25 L 409.25 648 L 562.84375 647.0625 L 574.375 645.3125 L 587.84375 642.4375 L 601.875 637.25 L 610.71875 631.875 L 618.59375 626.875 L 627.25 619.5625 L 635.125 611.09375 L 641.09375 602.25 L 643.78125 596.875 L 648 587.0625 L 651.09375 577.0625 L 653.40625 568.4375 L 654.9375 556.3125 L 656.65625 540.375 L 657.25 492.875 L 744.3125 492.3125 L 749.5 494.40625 L 757 498.84375 L 773.71875 516.34375 L 772.375 379.46875 L 762.59375 390.625 L 755.46875 397.15625 L 749.6875 401.5625 L 743.15625 404.84375 L 737.78125 406.1875 L 656.84375 406 L 656.28125 309.6875 L 663.375 309.875 L 672.8125 312.75 L 682.625 314.6875 L 693.96875 316.40625 L 706.4375 316.78125 L 717.59375 316.21875 L 730.875 313.90625 L 745.84375 309.5 L 758.53125 304.125 L 770.65625 297.375 L 780.46875 290.0625 L 788.90625 282.78125 L 798.15625 273.34375 L 805.25 264.125 L 812.1875 254.125 L 818.125 242.03125 L 823.125 229.90625 L 826.78125 217.21875 L 829.46875 204.15625 L 831.21875 191.0625 L 832.375 177.25 L 832.375 81.3125 L 834.46875 74.78125 L 838.125 67.65625 L 856 49.21875 L 743.34375 50.1875 L 751.03125 57.875 L 758.9375 65.34375 L 762.78125 71.90625 L 766.4375 79.1875 L 767.375 87.84375 L 768.34375 182.4375 L 767.375 193.1875 L 764.3125 204.71875 L 759.3125 216.84375 L 752.40625 226.4375 L 746.0625 233.1875 L 740.28125 238.5625 L 729.71875 245.28125 L 721.625 249.71875 L 709.71875 252.78125 L 699.71875 254.3125 L 690.3125 253.75 L 678 251.25 L 667.4375 246.25 L 659.34375 241.625 L 655.6875 238.5625 L 656.46875 80.53125 L 658.78125 73.25 L 662.8125 66.90625 L 680.875 49.59375 L 566.125 49.78125 L 575.9375 59.21875 L 582.28125 66.125 L 586.875 73.625 L 589.375 81.125 L 590.34375 89.1875 L 591.125 406.5625 L 365.8125 406.96875 L 364.46875 81.5 L 366.40625 75.53125 L 369.46875 69.78125 L 374.28125 64.59375 L 390.625 48.8125 L 272.59375 48.4375 L 277 52.46875 L 283.34375 58.4375 L 287.96875 63.0625 L 291.4375 68.4375 L 294.5 75.15625 L 296.40625 83.25 L 297.1875 88.03125 L 299.125 238.75 L 292.78125 242.59375 L 285.28125 246.25 L 275.65625 249.90625 L 267.78125 251.4375 L 257.59375 251.625 L 248.9375 251.8125 L 234.34375 247.96875 L 221.0625 242.03125 L 215.09375 238.375 L 208 232.21875 L 200.3125 222.59375 L 193.96875 212.21875 L 190.125 202.625 L 187.8125 193.5625 L 186.46875 180.875 L 186.84375 75.34375 L 189.53125 68.25 L 193.96875 63.25 L 200.5 56.3125 L 209.71875 47.875 z M 366 492.875 L 591.3125 492.875 L 591.6875 553.8125 L 590.90625 561.6875 L 588.625 567.46875 L 584.5625 572.09375 L 579.5625 576.125 L 574.1875 579.78125 L 566 581.96875 L 392.84375 581.96875 L 383.6875 580.15625 L 377.71875 575.34375 L 373.5 569.96875 L 369.28125 562.28125 L 366.59375 555.75 L 366 547.84375 L 366 492.875 z "
       id="path2816" />
  </g>
</svg>
